<svg width="32" height="33" viewBox="0 0 32 33" fill="none" xmlns="http://www.w3.org/2000/svg">
<mask id="mask0_134_306" style="mask-type:luminance" maskUnits="userSpaceOnUse" x="0" y="0" width="32" height="33">
<path d="M0.166626 0.666504H31.8333V32.3332H0.166626V0.666504Z" fill="white"/>
</mask>
<g mask="url(#mask0_134_306)">
<path d="M18.9833 0.899868L18.0333 0.766535C15.1782 0.354298 12.2647 0.762127 9.63252 1.94248C7.00034 3.12283 4.7579 5.02707 3.16663 7.4332C1.47355 9.73317 0.464268 12.4644 0.254925 15.3127C0.0455814 18.1609 0.644686 21.0104 1.98329 23.5332C2.12029 23.786 2.20558 24.0636 2.23419 24.3498C2.26281 24.6359 2.23417 24.9249 2.14996 25.1999C1.46663 27.5499 0.833293 29.9165 0.166626 32.3999L0.999959 32.1499C3.24996 31.5499 5.49996 30.9499 7.74996 30.3999C8.22486 30.3011 8.71849 30.3476 9.16663 30.5332C11.1853 31.5184 13.3913 32.0604 15.6367 32.1229C17.8821 32.1853 20.1148 31.7667 22.1851 30.8952C24.2554 30.0238 26.1154 28.7195 27.6401 27.0701C29.1649 25.4206 30.3192 23.4641 31.0255 21.3318C31.7319 19.1995 31.974 16.9408 31.7356 14.7072C31.4972 12.4737 30.7837 10.3169 29.6432 8.38179C28.5027 6.44665 26.9614 4.77786 25.1228 3.48741C23.2842 2.19696 21.1909 1.31471 18.9833 0.899868ZM23.1833 22.7665C22.5776 23.3089 21.8389 23.6809 21.0426 23.8449C20.2462 24.0088 19.4207 23.9588 18.65 23.6999C15.1576 22.7165 12.1277 20.5252 10.1 17.5165C9.32543 16.4524 8.70279 15.2857 8.24996 14.0499C8.00471 13.3328 7.96049 12.5623 8.12208 11.8219C8.28368 11.0815 8.64492 10.3995 9.16663 9.84987C9.4206 9.52573 9.76631 9.28558 10.1587 9.16073C10.5511 9.03587 10.972 9.03209 11.3666 9.14987C11.7 9.2332 11.9333 9.71653 12.2333 10.0832C12.4766 10.7715 12.7616 11.4449 13.0833 12.0999C13.3273 12.434 13.4293 12.8512 13.3668 13.2603C13.3043 13.6693 13.0826 14.0371 12.75 14.2832C12 14.9499 12.1166 15.4999 12.65 16.2499C13.829 17.9485 15.456 19.2869 17.35 20.1165C17.8833 20.3499 18.2833 20.3999 18.6333 19.8499C18.7833 19.6332 18.9833 19.4499 19.15 19.2499C20.1166 18.0332 19.8166 18.0499 21.35 18.7165C21.8383 18.9215 22.3116 19.1615 22.7666 19.4332C23.2166 19.6999 23.9 19.9832 24 20.3832C24.0962 20.8171 24.0709 21.2692 23.9268 21.6897C23.7827 22.1102 23.5254 22.4828 23.1833 22.7665Z" fill="#FFFAF0"/>
</g>
</svg>
