<svg width="16" height="8" viewBox="0 0 16 8" fill="none" xmlns="http://www.w3.org/2000/svg">
<path d="M14.3363 0.446205L8.48006 6.20995C8.35228 6.33637 8.1798 6.40727 8.00006 6.40727C7.82032 6.40727 7.64783 6.33637 7.52006 6.20995L1.66381 0.447454C1.53524 0.32111 1.36219 0.250314 1.18193 0.250314C1.00168 0.250314 0.828627 0.321109 0.700059 0.447454C0.636748 0.509175 0.586432 0.582945 0.552078 0.664416C0.517724 0.745887 0.500024 0.833411 0.500024 0.921829C0.500024 1.01025 0.517724 1.09777 0.552078 1.17924C0.586432 1.26071 0.636748 1.33448 0.700059 1.3962L6.55506 7.1587C6.94071 7.53736 7.45959 7.74951 8.00006 7.74951C8.54053 7.74951 9.0594 7.53736 9.44506 7.1587L15.3001 1.3962C15.3636 1.33446 15.414 1.26062 15.4485 1.17903C15.483 1.09744 15.5007 1.00977 15.5007 0.921205C15.5007 0.832636 15.483 0.744967 15.4485 0.66338C15.414 0.581793 15.3636 0.507946 15.3001 0.446205C15.1715 0.31986 14.9984 0.249065 14.8182 0.249064C14.6379 0.249065 14.4649 0.31986 14.3363 0.446205Z" fill="#50453B"/>
</svg>
