<svg width="100" height="125" viewBox="0 0 100 125" fill="none" xmlns="http://www.w3.org/2000/svg">
<path d="M45.625 1.12498L8.125 15.1875C3.25 17.0625 0 21.6875 0 26.9375V56.3125C0 86.5 19.5625 114.875 46.4375 123.5C48.75 124.25 51.25 124.25 53.5625 123.5C80.4375 114.875 100 86.5625 100 56.3125V26.9375C99.9955 24.3941 99.2153 21.9126 97.7636 19.8243C96.3118 17.7359 94.2575 16.1402 91.875 15.25L54.375 1.18748C51.5625 0.0624842 48.4375 0.0624843 45.625 1.12498ZM50 93.25C32.75 93.25 18.75 79.25 18.75 62C18.75 44.75 32.75 30.75 50 30.75C67.25 30.75 81.25 44.75 81.25 62C81.25 79.25 67.25 93.25 50 93.25ZM62.5 74.5C61.25 75.75 59.3125 75.75 58.0625 74.5L47.75 64.1875C47.1668 63.6067 46.8308 62.8228 46.8125 62V46.375C46.875 44.625 48.25 43.25 50 43.25C51.75 43.25 53.125 44.625 53.125 46.375V60.6875L62.5 70.0625C63.75 71.3125 63.75 73.25 62.5 74.5Z" fill="#548449"/>
</svg>
